<svg width="26" height="24" viewBox="0 0 26 24" fill="none" xmlns="http://www.w3.org/2000/svg">
<ellipse cx="13.2595" cy="12" rx="12.4444" ry="12" fill="#FFE0B3"/>
<path d="M7.84944 15H8.66762L10.1122 9.78409H10.1634L11.608 15H12.4261L14.2159 8.45455H13.4105L12.0426 13.7855H11.9787L10.5852 8.45455H9.69035L8.29688 13.7855H8.23296L6.86507 8.45455H6.05967L7.84944 15ZM20.1629 10.5C19.92 9.15767 18.8462 8.36506 17.5294 8.36506C15.8547 8.36506 14.6402 9.65625 14.6402 11.7273C14.6402 13.7983 15.8547 15.0895 17.5294 15.0895C18.8462 15.0895 19.92 14.2969 20.1629 12.9545H19.3703C19.1785 13.8622 18.3987 14.348 17.5294 14.348C16.3405 14.348 15.4072 13.4276 15.4072 11.7273C15.4072 10.027 16.3405 9.10653 17.5294 9.10653C18.3987 9.10653 19.1785 9.59233 19.3703 10.5H20.1629Z" fill="#CA4A02"/>
</svg>
